<svg xmlns="http://www.w3.org/2000/svg" width="30" height="30" viewBox="0 0 30 30">
  <path id="Icon_metro-cross" data-name="Icon metro-cross" d="M32.3,26.029h0l-9.1-9.1,9.1-9.1h0a.94.94,0,0,0,0-1.326L28,2.2a.94.94,0,0,0-1.326,0h0l-9.1,9.1L8.47,2.2h0a.94.94,0,0,0-1.326,0l-4.3,4.3a.94.94,0,0,0,0,1.326h0l9.1,9.1-9.1,9.1h0a.94.94,0,0,0,0,1.326l4.3,4.3a.94.94,0,0,0,1.326,0h0l9.1-9.1,9.1,9.1h0a.939.939,0,0,0,1.325,0l4.3-4.3a.939.939,0,0,0,0-1.326Z" transform="translate(-2.571 -1.928)" fill="#fff"/>
</svg>
