<?xml version="1.0" encoding="utf-8"?>
<!-- Generator: Adobe Illustrator 26.1.0, SVG Export Plug-In . SVG Version: 6.00 Build 0)  -->
<svg version="1.1" id="Layer_1" xmlns="http://www.w3.org/2000/svg" xmlns:xlink="http://www.w3.org/1999/xlink" x="0px" y="0px"
	 viewBox="0 0 161.6 190.1" style="enable-background:new 0 0 161.6 190.1;" xml:space="preserve">
<style type="text/css">
	.st0{fill:#90CEA1;}
</style>
<path class="st0" d="M87.7,17.6c-0.5-4.7-0.3-9-1.1-13.3c-0.2-0.9-0.2-1.8-0.2-2.7c0-1.4,0.8-1.8,2.1-1.3c0.4,0.2,0.8,0.4,1.2,0.6
	c23.3,11.9,42.5,28.3,56.1,50.9c8.4,13.9,13.5,29,15.2,45.3c1.6,15.1,0.4,29.8-5.8,43.8c-11.8,26.4-31.9,42.3-60.4,47.2
	c-16.5,2.9-32.8,1.2-48.3-5.3C24,173.3,9.8,156.3,3.2,132.9c-2.8-9.8-3.7-19.8-2.8-30C1,95.9,3,89.2,5.9,82.8
	c6-13.5,14.8-24.8,26.8-33.4c1.1-0.8,2.3-1.6,3.4-2.3c2.7-1.6,3.2-1.3,3.6,1.9c0.9,7.1,1.8,14.2,4.7,20.7c4,8.7,3.1,7.2,9.9,4.1
	C72.7,65.7,83,51.3,86.4,31.7C87.3,26.9,87.3,22.1,87.7,17.6z"/>
</svg>
