<?xml version="1.0" encoding="utf-8"?>
<!-- Generator: Adobe Illustrator 26.1.0, SVG Export Plug-In . SVG Version: 6.00 Build 0)  -->
<svg version="1.1" id="Layer_1" xmlns="http://www.w3.org/2000/svg" xmlns:xlink="http://www.w3.org/1999/xlink" x="0px" y="0px"
	 viewBox="0 0 1052 190.1" style="enable-background:new 0 0 1052 190.1;" xml:space="preserve">
<style type="text/css">
	.st0{fill:url(#SVGID_1_);}
	.st1{fill:#90CEA1;}
</style>
<g>
	
		<linearGradient id="SVGID_1_" gradientUnits="userSpaceOnUse" x1="192.1262" y1="2905.6709" x2="1052.0388" y2="2905.6709" gradientTransform="matrix(1 0 0 -1 0 3000.7244)">
		<stop  offset="0" style="stop-color:#90CEA1"/>
		<stop  offset="0.56" style="stop-color:#3CBEC9"/>
		<stop  offset="1" style="stop-color:#00B3E5"/>
	</linearGradient>
	<path class="st0" d="M246.1,189.3h41.7V37h54V0H192.1v36.9h54V189.3z M396.3,189.3H438V44.1h0.5l47.8,145.1h32.1l49.4-145.1h0.5
		v145.1h41.7V0h-62.8l-43.8,123.5h-0.5L459.4,0h-63.1V189.3z M668.5,0.6h62.5c14.6,0,29.1,1.8,43.2,5.3c12.9,3.1,25,8.6,35.6,16.5
		c10.3,7.8,18.6,17.9,24.2,29.5c6.3,13.8,9.4,28.9,8.9,44.1c0.3,14-2.7,27.9-8.7,40.5c-5.6,11.4-13.6,21.4-23.4,29.4
		c-10.1,8.1-21.6,14.2-33.9,18c-13,4.1-26.7,6.2-40.4,6.1h-68.1V0.6z M710.2,151.4h21.4c9,0.1,18-0.9,26.7-2.9
		c7.8-1.6,15.2-4.8,21.7-9.5c6.2-4.7,11.1-10.8,14.3-17.9c3.8-8.5,5.6-17.8,5.3-27.2c0.2-8.4-1.7-16.6-5.3-24.2
		c-3.3-6.7-8.1-12.5-14.1-17c-6.1-4.6-13.1-8-20.5-10c-8.1-2.3-16.6-3.4-25-3.4h-24.6V151.4z M903.4,0.6H974
		c8.3,0,16.5,0.6,24.7,1.8c7.8,1,15.3,3.4,22.3,6.9c6.5,3.4,12,8.4,16,14.5c4.4,7.5,6.6,16.1,6.1,24.9c0.4,9.7-2.8,19.2-8.9,26.7
		c-6.2,7.2-14.5,12.5-23.7,15.1v0.3c5.9,0.8,11.7,2.7,17,5.3c4.9,2.5,9.4,5.8,13.1,9.9c3.7,4.1,6.5,8.8,8.4,14
		c2,5.5,3,11.3,2.9,17.1c0.3,8.8-1.9,17.5-6.4,25c-4.2,6.6-9.9,12.1-16.6,16c-7,4.2-14.8,7.2-22.8,8.8c-8.3,1.8-16.8,2.7-25.3,2.7
		h-77.5L903.4,0.6z M945.1,76.3h30.2c3.2,0,6.4-0.3,9.5-1.1c3-0.6,5.8-1.8,8.4-3.5c2.5-1.6,4.6-3.8,6-6.4c1.6-3,2.3-6.3,2.2-9.6
		c0.2-3.4-0.6-6.8-2.4-9.7c-1.7-2.5-3.9-4.6-6.6-6c-3-1.5-6.2-2.5-9.5-3c-3.3-0.6-6.6-1-9.9-1h-28.3L945.1,76.3z M945.1,154.6h37.4
		c3.3,0,6.6-0.3,9.8-1.1c3.2-0.7,6.2-1.9,8.9-3.7c2.7-1.8,4.9-4.2,6.6-6.9c1.8-3.2,2.6-6.8,2.5-10.4c0.1-3.8-1-7.6-3.3-10.7
		c-2.2-2.8-5.1-4.9-8.4-6.3c-3.4-1.4-7-2.4-10.7-2.9c-3.6-0.5-7.3-0.8-11-0.8h-31.5L945.1,154.6z"/>
	<path class="st1" d="M87.7,17.6c-0.5-4.7-0.3-9-1.1-13.3c-0.2-0.9-0.2-1.8-0.2-2.7c0-1.4,0.8-1.8,2.1-1.3c0.4,0.2,0.8,0.4,1.2,0.6
		c23.3,11.9,42.5,28.3,56.1,50.9c8.4,13.9,13.5,29,15.2,45.3c1.6,15.1,0.4,29.8-5.8,43.8c-11.8,26.4-31.9,42.3-60.4,47.2
		c-16.5,2.9-32.8,1.2-48.3-5.3C24,173.3,9.8,156.3,3.2,132.9c-2.8-9.8-3.7-19.8-2.8-30C1,95.9,3,89.2,5.9,82.8
		c6-13.5,14.8-24.8,26.8-33.4c1.1-0.8,2.3-1.6,3.4-2.3c2.7-1.6,3.2-1.3,3.6,1.9c0.9,7.1,1.8,14.2,4.7,20.7c4,8.7,3.1,7.2,9.9,4.1
		c18.4-8.1,28.7-22.5,32.1-42.1C87.3,26.9,87.3,22.1,87.7,17.6z"/>
</g>
</svg>
